<mxfile host="app.diagrams.net" modified="2021-12-22T18:18:10.810Z" agent="5.0 (X11; Linux x86_64) AppleWebKit/537.36 (KHTML, like Gecko) Chrome/96.0.4664.110 Safari/537.36" etag="HbclAMSVvG0lnD6L93J6" version="16.0.2" type="github">
  <diagram name="Page-1" id="42789a77-a242-8287-6e28-9cd8cfd52e62">
    <mxGraphModel dx="862" dy="462" grid="1" gridSize="10" guides="1" tooltips="1" connect="1" arrows="1" fold="1" page="1" pageScale="1" pageWidth="1100" pageHeight="850" background="none" math="0" shadow="0">
      <root>
        <mxCell id="0" />
        <mxCell id="1" parent="0" />
        <mxCell id="weDCOjmLpfjMSYwhzA4V-2" value="43.2 M_sun" style="ellipse;whiteSpace=wrap;html=1;aspect=fixed;" vertex="1" parent="1">
          <mxGeometry x="520" y="110" width="80" height="80" as="geometry" />
        </mxCell>
        <mxCell id="weDCOjmLpfjMSYwhzA4V-3" value="&lt;span&gt;10 M_sun&lt;/span&gt;" style="ellipse;whiteSpace=wrap;html=1;aspect=fixed;" vertex="1" parent="1">
          <mxGeometry x="450" y="265" width="40" height="40" as="geometry" />
        </mxCell>
        <mxCell id="weDCOjmLpfjMSYwhzA4V-4" value="&lt;span&gt;35.16 M_sun&lt;/span&gt;" style="ellipse;whiteSpace=wrap;html=1;aspect=fixed;" vertex="1" parent="1">
          <mxGeometry x="640" y="250" width="70" height="70" as="geometry" />
        </mxCell>
        <mxCell id="weDCOjmLpfjMSYwhzA4V-5" value="18.75 M_sun" style="ellipse;whiteSpace=wrap;html=1;aspect=fixed;" vertex="1" parent="1">
          <mxGeometry x="600" y="390" width="60" height="60" as="geometry" />
        </mxCell>
        <mxCell id="weDCOjmLpfjMSYwhzA4V-6" value="&lt;span&gt;18.75 M_sun&lt;/span&gt;" style="ellipse;whiteSpace=wrap;html=1;aspect=fixed;" vertex="1" parent="1">
          <mxGeometry x="720" y="390" width="60" height="60" as="geometry" />
        </mxCell>
        <mxCell id="weDCOjmLpfjMSYwhzA4V-7" value="10 M_sun" style="ellipse;whiteSpace=wrap;html=1;aspect=fixed;" vertex="1" parent="1">
          <mxGeometry x="560" y="510" width="40" height="40" as="geometry" />
        </mxCell>
        <mxCell id="weDCOjmLpfjMSYwhzA4V-8" value="&lt;span&gt;10 M_sun&lt;/span&gt;" style="ellipse;whiteSpace=wrap;html=1;aspect=fixed;" vertex="1" parent="1">
          <mxGeometry x="780" y="510" width="40" height="40" as="geometry" />
        </mxCell>
        <mxCell id="weDCOjmLpfjMSYwhzA4V-9" value="&lt;span&gt;10 M_sun&lt;/span&gt;" style="ellipse;whiteSpace=wrap;html=1;aspect=fixed;" vertex="1" parent="1">
          <mxGeometry x="640" y="510" width="40" height="40" as="geometry" />
        </mxCell>
        <mxCell id="weDCOjmLpfjMSYwhzA4V-10" value="&lt;span&gt;10 M_sun&lt;/span&gt;" style="ellipse;whiteSpace=wrap;html=1;aspect=fixed;" vertex="1" parent="1">
          <mxGeometry x="700" y="510" width="40" height="40" as="geometry" />
        </mxCell>
        <mxCell id="weDCOjmLpfjMSYwhzA4V-12" value="" style="curved=1;endArrow=classic;html=1;rounded=0;" edge="1" parent="1">
          <mxGeometry width="50" height="50" relative="1" as="geometry">
            <mxPoint x="615" y="530" as="sourcePoint" />
            <mxPoint x="615" y="450" as="targetPoint" />
            <Array as="points">
              <mxPoint x="655" y="510" />
              <mxPoint x="605" y="460" />
            </Array>
          </mxGeometry>
        </mxCell>
        <mxCell id="weDCOjmLpfjMSYwhzA4V-13" value="" style="endArrow=classic;startArrow=classic;html=1;rounded=0;" edge="1" parent="1">
          <mxGeometry width="50" height="50" relative="1" as="geometry">
            <mxPoint x="600" y="530" as="sourcePoint" />
            <mxPoint x="640" y="529.5" as="targetPoint" />
          </mxGeometry>
        </mxCell>
        <mxCell id="weDCOjmLpfjMSYwhzA4V-14" value="" style="curved=1;endArrow=classic;html=1;rounded=0;" edge="1" parent="1">
          <mxGeometry width="50" height="50" relative="1" as="geometry">
            <mxPoint x="760" y="530" as="sourcePoint" />
            <mxPoint x="760" y="450" as="targetPoint" />
            <Array as="points">
              <mxPoint x="800" y="510" />
              <mxPoint x="750" y="460" />
            </Array>
          </mxGeometry>
        </mxCell>
        <mxCell id="weDCOjmLpfjMSYwhzA4V-15" value="" style="endArrow=classic;startArrow=classic;html=1;rounded=0;" edge="1" parent="1">
          <mxGeometry width="50" height="50" relative="1" as="geometry">
            <mxPoint x="740" y="530" as="sourcePoint" />
            <mxPoint x="780" y="529.5" as="targetPoint" />
          </mxGeometry>
        </mxCell>
        <mxCell id="weDCOjmLpfjMSYwhzA4V-17" value="" style="curved=1;endArrow=classic;html=1;rounded=0;" edge="1" parent="1">
          <mxGeometry width="50" height="50" relative="1" as="geometry">
            <mxPoint x="690" y="420" as="sourcePoint" />
            <mxPoint x="680" y="320" as="targetPoint" />
            <Array as="points">
              <mxPoint x="720" y="380" />
              <mxPoint x="670" y="330" />
            </Array>
          </mxGeometry>
        </mxCell>
        <mxCell id="weDCOjmLpfjMSYwhzA4V-18" value="" style="endArrow=classic;startArrow=classic;html=1;rounded=0;" edge="1" parent="1">
          <mxGeometry width="50" height="50" relative="1" as="geometry">
            <mxPoint x="660" y="419.5" as="sourcePoint" />
            <mxPoint x="720" y="419.5" as="targetPoint" />
          </mxGeometry>
        </mxCell>
        <mxCell id="weDCOjmLpfjMSYwhzA4V-20" value="" style="curved=1;endArrow=classic;html=1;rounded=0;" edge="1" parent="1">
          <mxGeometry width="50" height="50" relative="1" as="geometry">
            <mxPoint x="570" y="280" as="sourcePoint" />
            <mxPoint x="560" y="190" as="targetPoint" />
            <Array as="points">
              <mxPoint x="600" y="250" />
              <mxPoint x="550" y="200" />
            </Array>
          </mxGeometry>
        </mxCell>
        <mxCell id="weDCOjmLpfjMSYwhzA4V-21" value="" style="endArrow=classic;startArrow=classic;html=1;rounded=0;" edge="1" parent="1">
          <mxGeometry width="50" height="50" relative="1" as="geometry">
            <mxPoint x="490" y="279.81" as="sourcePoint" />
            <mxPoint x="640.0000000000001" y="279.99999999999994" as="targetPoint" />
          </mxGeometry>
        </mxCell>
      </root>
    </mxGraphModel>
  </diagram>
</mxfile>
